<?xml version="1.0" encoding="utf-8"?>
<!-- Generator: Adobe Illustrator 21.0.0, SVG Export Plug-In . SVG Version: 6.00 Build 0)  -->
<svg version="1.1" id="Layer_1" xmlns="http://www.w3.org/2000/svg" xmlns:xlink="http://www.w3.org/1999/xlink" x="0px" y="0px"
	 viewBox="0 0 20.2 20.2" style="enable-background:new 0 0 20.2 20.2;" xml:space="preserve">
<style type="text/css">
	.st0{fill:#000;}
</style>
<path class="st0" d="M11.5,10.1l8.6-8.6c0.1-0.1,0.1-0.3,0-0.4L19,0.1c-0.1-0.1-0.3-0.1-0.4,0l-8.6,8.6L1.5,0.1C1.4,0,1.2,0,1.1,0.1
	L0.1,1.1C0,1.2,0,1.4,0.1,1.5l8.6,8.6l-8.6,8.6C0,18.8,0,18.9,0.1,19l1.1,1.1c0.1,0.1,0.3,0.1,0.4,0l8.6-8.6l8.6,8.6
	c0.1,0.1,0.3,0.1,0.4,0l1.1-1.1c0.1-0.1,0.1-0.3,0-0.4L11.5,10.1z"/>
</svg>
